<svg xmlns="http://www.w3.org/2000/svg" xmlns:xlink="http://www.w3.org/1999/xlink" width="9px" height="14.996px" viewBox="0 0 9 14.996">
	<path fill-rule="evenodd" clip-rule="evenodd" fill="#212121" d="M2.876,7.497l6.047-5.814C9.016,1.595,9.026,1.441,8.947,1.34
			l-0.98-1.255C7.923,0.028,7.861,0,7.799,0C7.748,0,7.696,0.019,7.655,0.059L0.077,7.312C0.028,7.359,0,7.427,0,7.497
			c0,0.071,0.028,0.139,0.077,0.185l7.578,7.256c0.044,0.042,0.1,0.062,0.161,0.058c0.058-0.005,0.112-0.035,0.15-0.084l0.98-1.255
			c0.079-0.102,0.068-0.255-0.024-0.343L2.876,7.497z"/>
</svg>
