<svg xmlns="http://www.w3.org/2000/svg" xmlns:xlink="http://www.w3.org/1999/xlink" preserveAspectRatio="xMidYMid" width="9" height="15" viewBox="0 0 9 15">
  <path d="M8.924,7.318 C8.924,7.318 1.347,0.063 1.347,0.063 C1.302,0.020 1.247,-0.000 1.186,0.004 C1.128,0.009 1.073,0.040 1.035,0.089 C1.035,0.089 0.055,1.344 0.055,1.344 C-0.024,1.445 -0.014,1.599 0.079,1.686 C0.079,1.686 6.126,7.503 6.126,7.503 C6.126,7.503 0.079,13.318 0.079,13.318 C-0.014,13.405 -0.025,13.559 0.055,13.660 C0.055,13.660 1.035,14.915 1.035,14.915 C1.079,14.971 1.141,15.000 1.203,15.000 C1.254,15.000 1.305,14.981 1.347,14.942 C1.347,14.942 8.924,7.687 8.924,7.687 C8.974,7.641 9.002,7.574 9.002,7.503 C9.002,7.432 8.974,7.364 8.924,7.318 Z" id="path-1" class="cls-2" fill-rule="evenodd" fill="#d41046"/>
</svg>
