<svg xmlns="http://www.w3.org/2000/svg" xmlns:xlink="http://www.w3.org/1999/xlink" preserveAspectRatio="xMidYMid" width="21" height="27" viewBox="0 0 21 27">
  <path d="M-0.000,27.000 C-0.000,27.000 -0.000,3.000 -0.000,3.000 C-0.000,3.000 3.000,3.000 3.000,3.000 C3.000,3.000 3.000,8.000 3.000,8.000 C3.000,8.000 7.000,8.000 7.000,8.000 C7.000,8.000 7.000,3.000 7.000,3.000 C7.000,3.000 14.000,3.000 14.000,3.000 C14.000,3.000 14.000,8.000 14.000,8.000 C14.000,8.000 18.000,8.000 18.000,8.000 C18.000,8.000 17.937,3.000 17.937,3.000 C17.937,3.000 21.000,3.000 21.000,3.000 C21.000,3.000 21.000,27.000 21.000,27.000 C21.000,27.000 -0.000,27.000 -0.000,27.000 ZM6.000,12.937 C6.000,12.937 3.000,12.937 3.000,12.937 C3.000,12.937 3.000,15.937 3.000,15.937 C3.000,15.937 6.000,15.937 6.000,15.937 C6.000,15.937 6.000,12.937 6.000,12.937 ZM6.000,16.937 C6.000,16.937 3.000,16.937 3.000,16.937 C3.000,16.937 3.000,19.937 3.000,19.937 C3.000,19.937 6.000,19.937 6.000,19.937 C6.000,19.937 6.000,16.937 6.000,16.937 ZM6.000,20.937 C6.000,20.937 3.000,20.937 3.000,20.937 C3.000,20.937 3.000,23.937 3.000,23.937 C3.000,23.937 6.000,23.937 6.000,23.937 C6.000,23.937 6.000,20.937 6.000,20.937 ZM10.000,12.937 C10.000,12.937 7.000,12.937 7.000,12.937 C7.000,12.937 7.000,15.937 7.000,15.937 C7.000,15.937 10.000,15.937 10.000,15.937 C10.000,15.937 10.000,12.937 10.000,12.937 ZM10.000,16.937 C10.000,16.937 7.000,16.937 7.000,16.937 C7.000,16.937 7.000,19.937 7.000,19.937 C7.000,19.937 10.000,19.937 10.000,19.937 C10.000,19.937 10.000,16.937 10.000,16.937 ZM10.000,20.937 C10.000,20.937 7.000,20.937 7.000,20.937 C7.000,20.937 7.000,23.937 7.000,23.937 C7.000,23.937 10.000,23.937 10.000,23.937 C10.000,23.937 10.000,20.937 10.000,20.937 ZM14.000,12.937 C14.000,12.937 11.000,12.937 11.000,12.937 C11.000,12.937 11.000,15.937 11.000,15.937 C11.000,15.937 14.000,15.937 14.000,15.937 C14.000,15.937 14.000,12.937 14.000,12.937 ZM14.000,16.937 C14.000,16.937 11.000,16.937 11.000,16.937 C11.000,16.937 11.000,19.937 11.000,19.937 C11.000,19.937 14.000,19.937 14.000,19.937 C14.000,19.937 14.000,16.937 14.000,16.937 ZM14.000,20.937 C14.000,20.937 11.000,20.937 11.000,20.937 C11.000,20.937 11.000,23.937 11.000,23.937 C11.000,23.937 14.000,23.937 14.000,23.937 C14.000,23.937 14.000,20.937 14.000,20.937 ZM18.000,12.937 C18.000,12.937 15.000,12.937 15.000,12.937 C15.000,12.937 15.000,15.937 15.000,15.937 C15.000,15.937 18.000,15.937 18.000,15.937 C18.000,15.937 18.000,12.937 18.000,12.937 ZM18.000,16.937 C18.000,16.937 15.000,16.937 15.000,16.937 C15.000,16.937 15.000,19.937 15.000,19.937 C15.000,19.937 18.000,19.937 18.000,19.937 C18.000,19.937 18.000,16.937 18.000,16.937 ZM18.000,20.937 C18.000,20.937 15.000,20.937 15.000,20.937 C15.000,20.937 15.000,23.937 15.000,23.937 C15.000,23.937 18.000,23.937 18.000,23.937 C18.000,23.937 18.000,20.937 18.000,20.937 ZM15.000,5.000 C15.000,5.000 17.000,5.000 17.000,5.000 C17.000,5.000 17.000,7.000 17.000,7.000 C17.000,7.000 15.000,7.000 15.000,7.000 C15.000,7.000 15.000,5.000 15.000,5.000 ZM15.000,-0.000 C15.000,-0.000 17.000,-0.000 17.000,-0.000 C17.000,-0.000 17.000,4.000 17.000,4.000 C17.000,4.000 15.000,4.000 15.000,4.000 C15.000,4.000 15.000,-0.000 15.000,-0.000 ZM4.000,5.000 C4.000,5.000 6.000,5.000 6.000,5.000 C6.000,5.000 6.000,7.000 6.000,7.000 C6.000,7.000 4.000,7.000 4.000,7.000 C4.000,7.000 4.000,5.000 4.000,5.000 ZM4.000,-0.000 C4.000,-0.000 6.000,-0.000 6.000,-0.000 C6.000,-0.000 6.000,4.000 6.000,4.000 C6.000,4.000 4.000,4.000 4.000,4.000 C4.000,4.000 4.000,-0.000 4.000,-0.000 Z" id="path-1" class="cls-2" fill-rule="evenodd" fill="#bdbdbd"/>
</svg>
