<svg xmlns="http://www.w3.org/2000/svg" xmlns:xlink="http://www.w3.org/1999/xlink" preserveAspectRatio="xMidYMid" width="17" height="13" viewBox="0 0 17 13">
  <path d="M5.682,12.924 C5.682,12.924 16.938,1.347 16.938,1.347 C16.979,1.302 17.000,1.247 16.995,1.186 C16.990,1.128 16.960,1.073 16.911,1.035 C16.911,1.035 15.656,0.055 15.656,0.055 C15.555,-0.024 15.401,-0.014 15.314,0.079 C15.314,0.079 5.497,10.126 5.497,10.126 C5.497,10.126 1.682,6.079 1.682,6.079 C1.595,5.986 1.441,5.976 1.339,6.055 C1.339,6.055 0.085,7.035 0.085,7.035 C0.029,7.079 -0.000,7.141 -0.000,7.203 C-0.000,7.254 0.019,7.305 0.058,7.347 C0.058,7.347 5.313,12.924 5.313,12.924 C5.359,12.974 5.426,13.002 5.497,13.002 C5.568,13.002 5.636,12.974 5.682,12.924 Z" id="path-1" class="cls-2" fill-rule="evenodd" fill="#bdbdbd"/>
</svg>
