<svg xmlns="http://www.w3.org/2000/svg" xmlns:xlink="http://www.w3.org/1999/xlink" preserveAspectRatio="xMidYMid" width="26" height="26" viewBox="0 0 26 26">
  <path d="M12.999,25.986 C5.820,25.986 -0.001,20.166 -0.001,12.986 C-0.001,5.807 5.820,-0.014 12.999,-0.014 C20.179,-0.014 25.999,5.807 25.999,12.986 C25.999,20.166 20.179,25.986 12.999,25.986 ZM12.895,2.513 C7.096,2.513 2.395,7.214 2.395,13.013 C2.395,18.812 7.096,23.513 12.895,23.513 C18.694,23.513 23.395,18.812 23.395,13.013 C23.395,7.214 18.694,2.513 12.895,2.513 ZM16.012,16.003 C16.012,16.003 12.001,16.003 12.001,16.003 C11.449,16.003 11.001,15.559 11.001,15.013 C11.001,15.013 11.001,8.991 11.001,8.991 C11.001,8.445 11.449,8.001 12.001,8.001 C12.554,8.001 13.001,8.445 13.001,8.991 C13.001,8.991 13.001,14.023 13.001,14.023 C13.001,14.023 16.012,14.023 16.012,14.023 C16.565,14.023 17.013,14.466 17.013,15.013 C17.013,15.559 16.565,16.003 16.012,16.003 Z" id="path-1" class="cls-2" fill-rule="evenodd" fill="#bdbdbd"/>
</svg>
