<svg xmlns="http://www.w3.org/2000/svg" xmlns:xlink="http://www.w3.org/1999/xlink" preserveAspectRatio="xMidYMid" width="103" height="112" viewBox="0 0 103 112">
  <path d="M92.236,73.551 C90.638,95.005 72.737,111.918 50.875,111.918 C29.014,111.918 11.114,95.004 9.519,73.551 C3.986,71.705 -0.008,66.493 -0.008,60.340 C-0.008,52.646 6.230,46.409 13.925,46.409 C14.926,46.409 15.901,46.519 16.842,46.720 C24.338,35.979 36.783,28.945 50.875,28.945 C64.969,28.945 77.412,35.977 84.910,46.719 C85.853,46.518 86.827,46.408 87.828,46.408 C95.522,46.408 101.760,52.645 101.763,60.340 C101.763,66.493 97.769,71.705 92.236,73.551 ZM10.210,54.578 C6.819,54.578 4.070,57.327 4.070,60.718 C4.070,64.110 6.819,66.859 10.210,66.859 C13.602,66.859 16.351,64.111 16.351,60.718 C16.351,57.328 13.602,54.578 10.210,54.578 ZM50.875,105.548 C65.572,105.548 77.889,97.663 81.208,87.051 C74.239,90.609 63.171,92.802 50.874,92.802 C38.578,92.802 27.512,90.609 20.543,87.051 C23.861,97.663 36.180,105.548 50.875,105.548 ZM74.705,65.676 C76.417,63.291 77.435,60.374 77.435,57.214 C77.435,49.181 70.925,42.670 62.891,42.670 C57.895,42.670 53.493,45.189 50.874,49.024 C48.256,45.189 43.851,42.670 38.857,42.670 C30.824,42.670 24.314,49.181 24.314,57.214 C24.314,60.374 25.332,63.291 27.045,65.676 C22.437,69.897 19.655,75.356 19.655,81.321 C19.655,81.456 19.666,81.590 19.668,81.724 C24.622,85.401 35.956,88.684 50.874,88.684 C65.796,88.684 77.128,85.401 82.082,81.723 C82.084,81.590 82.094,81.455 82.094,81.321 C82.094,75.355 79.311,69.897 74.705,65.676 ZM91.541,54.578 C88.148,54.578 85.401,57.327 85.401,60.718 C85.401,64.110 88.148,66.859 91.541,66.859 C94.931,66.859 97.681,64.111 97.681,60.718 C97.681,57.328 94.931,54.578 91.541,54.578 ZM60.674,64.923 C57.366,64.923 54.684,62.241 54.684,58.934 C54.684,55.626 57.366,52.944 60.674,52.944 C63.981,52.944 66.663,55.626 66.663,58.934 C66.663,62.241 63.981,64.923 60.674,64.923 ZM41.079,64.923 C37.771,64.923 35.090,62.241 35.090,58.934 C35.090,55.626 37.771,52.944 41.079,52.944 C44.386,52.944 47.068,55.626 47.068,58.934 C47.068,62.241 44.386,64.923 41.079,64.923 ZM57.925,11.440 C51.699,12.721 53.714,20.676 54.671,24.411 C54.844,25.054 55.004,25.690 55.227,26.317 C55.227,26.317 48.971,24.421 37.349,28.074 C25.733,31.725 21.679,36.862 21.679,36.862 C21.503,36.220 21.279,35.604 21.040,34.982 C19.692,31.370 16.797,23.691 10.963,26.201 C10.963,26.201 9.060,27.742 9.060,27.742 C9.060,27.742 5.839,23.744 5.839,23.744 C5.839,23.744 9.831,20.530 9.831,20.530 C9.831,20.530 10.766,21.686 10.766,21.686 C12.330,23.437 14.189,24.028 16.029,23.192 C17.984,22.311 18.899,20.259 18.707,18.213 C18.608,17.101 18.197,15.794 17.116,15.232 C16.699,15.022 15.513,14.479 14.489,14.390 C14.489,14.390 14.519,14.376 14.519,14.376 C14.519,14.376 14.048,14.255 14.048,14.255 C14.048,14.255 15.237,9.270 15.237,9.270 C15.237,9.270 20.220,10.460 20.220,10.460 C20.220,10.460 19.997,11.423 19.997,11.423 C18.346,15.851 22.916,17.959 26.718,16.370 C30.601,14.739 31.993,7.705 27.372,5.295 C27.372,5.295 26.198,4.681 26.198,4.681 C26.198,4.681 28.567,0.139 28.567,0.139 C28.567,0.139 33.113,2.507 33.113,2.507 C33.113,2.507 32.497,3.684 32.497,3.684 C30.091,8.301 35.249,13.278 39.367,12.394 C43.388,11.524 45.945,7.177 42.058,4.489 C42.058,4.489 41.316,3.829 41.316,3.829 C41.316,3.829 44.729,-0.000 44.729,-0.000 C44.729,-0.000 48.553,3.410 48.553,3.410 C48.553,3.410 48.232,3.779 48.232,3.779 C48.232,3.779 48.260,3.775 48.260,3.775 C47.478,4.432 46.814,5.556 46.591,5.968 C46.034,7.045 46.440,8.352 46.988,9.323 C48.009,11.109 49.933,12.269 52.037,11.874 C54.020,11.509 55.214,9.958 55.496,7.626 C55.496,7.626 55.602,6.144 55.602,6.144 C55.602,6.144 60.714,6.496 60.714,6.496 C60.714,6.496 60.367,11.616 60.367,11.616 C60.367,11.616 57.925,11.440 57.925,11.440 Z" id="path-1" class="cls-2" fill-rule="evenodd" fill="#d31145" />
</svg>
