<svg xmlns="http://www.w3.org/2000/svg" xmlns:xlink="http://www.w3.org/1999/xlink" preserveAspectRatio="xMidYMid" width="60" height="104" viewBox="0 0 60 104">
  <path d="M41.501,69.344 C40.304,73.362 35.515,76.442 29.929,76.442 C24.343,76.442 19.555,73.362 18.358,69.210 C18.358,69.210 0.003,72.826 0.003,72.826 C0.003,72.826 0.003,71.219 0.003,71.219 C0.003,63.183 1.998,57.156 6.387,52.066 C6.387,52.066 53.604,52.066 53.604,52.066 C57.993,57.290 59.988,63.317 59.988,71.487 C59.988,71.487 59.988,73.094 59.988,73.094 C59.988,73.094 41.501,69.344 41.501,69.344 ZM8.249,47.950 C6.919,22.904 18.092,7.099 29.397,0.403 C29.397,0.403 30.062,0.001 30.062,0.001 C30.062,0.001 30.727,0.403 30.727,0.403 C41.900,6.966 53.072,22.770 51.875,47.950 C51.875,47.950 8.249,47.950 8.249,47.950 ZM36.978,22.502 C35.249,20.493 32.589,19.422 29.929,19.422 C27.535,19.422 25.274,20.359 23.412,21.966 C21.550,23.708 20.486,26.118 20.353,28.663 C20.220,31.208 21.151,33.753 22.880,35.628 C24.609,37.637 27.269,38.709 29.929,38.709 C32.323,38.709 34.584,37.771 36.446,36.164 C38.309,34.155 39.373,31.878 39.506,29.333 C39.639,26.788 38.708,24.377 36.978,22.502 ZM34.052,33.485 C32.855,34.556 31.392,35.092 29.796,35.092 C28.067,35.092 26.471,34.423 25.274,33.083 C24.210,31.878 23.545,30.271 23.678,28.663 C23.811,27.056 24.476,25.449 25.673,24.377 C26.870,23.306 28.333,22.770 29.929,22.770 C31.658,22.636 33.387,23.440 34.451,24.645 C35.648,25.851 36.180,27.458 36.047,29.199 C36.047,30.806 35.249,32.414 34.052,33.485 ZM25.806,85.416 C25.806,82.470 27.668,80.059 30.062,80.059 C32.323,79.925 34.319,82.336 34.319,85.416 C34.319,89.301 30.062,95.328 30.062,95.328 C30.062,95.328 25.806,88.899 25.806,85.416 ZM46.979,103.948 C46.979,103.948 13.012,103.948 13.012,103.948 C13.012,103.948 13.012,97.957 13.012,97.957 C13.012,97.957 46.979,97.957 46.979,97.957 C46.979,97.957 46.979,103.948 46.979,103.948 Z" id="path-1" class="cls-2" fill-rule="evenodd" fill="#d31145"/>
</svg>
