<svg xmlns="http://www.w3.org/2000/svg" xmlns:xlink="http://www.w3.org/1999/xlink" preserveAspectRatio="xMidYMid" width="11" height="23" viewBox="0 0 11 23">
  <path d="M7.018,21.994 C7.018,21.994 3.001,22.026 3.001,22.026 C3.001,22.026 3.001,11.032 3.001,11.032 C3.001,11.032 0.009,11.000 0.009,11.000 C0.009,11.000 0.009,6.992 0.009,6.992 C0.009,6.992 3.001,7.023 3.001,7.023 C3.001,7.023 3.001,4.967 3.001,4.967 C3.001,1.876 3.624,0.007 7.169,0.007 C7.169,0.007 11.027,0.007 11.027,0.007 C11.027,0.007 11.027,4.016 11.027,4.016 C11.027,4.016 8.496,4.016 8.496,4.016 C7.115,4.016 7.024,4.326 7.024,5.314 C7.024,5.314 7.018,6.992 7.018,6.992 C7.018,6.992 11.019,6.992 11.019,6.992 C11.019,6.992 10.628,11.000 10.628,11.000 C10.628,11.000 7.018,11.000 7.018,11.000 C7.018,11.000 7.018,21.994 7.018,21.994 Z" id="path-1" class="cls-2" fill-rule="evenodd" fill="#43609f" />
</svg>
