<svg version="1.1" id="Layer_1" xmlns="http://www.w3.org/2000/svg" xmlns:xlink="http://www.w3.org/1999/xlink" x="0px" y="0px"
	 viewBox="0 0 18.074 18.074">
<path style="fill:#FFFFFF;" d="M14.581,0H3.493C1.567,0,0,1.566,0,3.493v3.689v7.399c0,1.926,1.567,3.493,3.493,3.493h11.089
	c1.926,0,3.493-1.567,3.493-3.493v-7.4v-3.69C18.074,1.566,16.508,0,14.581,0z M15.627,2.039l0.399-0.002v0.398v2.579l-2.966,0.01
	l-0.01-2.976L15.627,2.039z M6.457,7.182c0.579-0.801,1.518-1.326,2.58-1.326c1.062,0,2.001,0.525,2.579,1.326
	c0.377,0.523,0.602,1.162,0.602,1.855c0,1.754-1.429,3.181-3.182,3.181c-1.754,0-3.181-1.427-3.181-3.181
	C5.856,8.344,6.081,7.704,6.457,7.182z M16.051,14.319c0,0.955-0.515,1.732-1.47,1.732H3.493c-0.955,0-1.427-0.776-1.427-1.732
	V7.051h2.392c-0.233,0.573-0.364,1.33-0.364,1.986c0,2.724,2.217,4.942,4.942,4.942c2.725,0,4.942-2.218,4.942-4.942
	c0-0.656-0.132-1.413-0.365-1.986h2.436V14.319z"/>
</svg>
