<?xml version="1.0" encoding="utf-8"?>
<svg version="1.1" id="Layer_1" xmlns="http://www.w3.org/2000/svg" xmlns:xlink="http://www.w3.org/1999/xlink" x="0px" y="0px"
	 width="65.971px" height="25.035px" viewBox="0 0 65.971 25.035" xml:space="preserve">
	<path fill-rule="evenodd" clip-rule="evenodd" fill="#212121" d="M54.986,18.004V0H40.878l-3.722,6.811L33.365,0h-9.058
			l0.006,0.009C24.195,0.006,24.078,0,23.957,0l-12.95,0.063v24.962l7.972,0.01v-7.552h4.347c2.584,0,4.826-0.575,6.516-1.756
			l-6.34,9.194l8.847,0.041l4.423-7.374l4.283,7.446h24.917v-7.031H54.986z M21.745,11.009h-2.767V5.991h3.223
			c1.896,0,3.651,0.141,3.651,2.422C25.853,10.94,23.746,11.009,21.745,11.009z M47.02,20.228l-5.615-8.432l5.615-8.345V20.228z"/>
	<rect y="17.024" fill-rule="evenodd" clip-rule="evenodd" fill="#D31E47" width="8" height="8"/>
</svg>