<svg xmlns="http://www.w3.org/2000/svg" xmlns:xlink="http://www.w3.org/1999/xlink" preserveAspectRatio="xMidYMid" width="28" height="43" viewBox="0 0 28 43">
  <path d="M5.766,13.555 C5.766,8.805 9.455,4.954 14.005,4.954 C18.555,4.954 22.244,8.805 22.244,13.555 C22.244,18.305 18.555,22.156 14.005,22.156 C9.455,22.156 5.766,18.305 5.766,13.555 ZM-0.001,14.630 C-0.001,18.228 4.178,25.812 4.178,25.812 C4.178,25.812 14.005,43.014 14.005,43.014 C14.005,43.014 23.267,25.812 23.267,25.812 C23.267,25.812 28.011,18.174 28.011,14.630 C28.011,6.555 21.740,0.008 14.005,0.008 C6.270,0.008 -0.001,6.555 -0.001,14.630 Z" id="path-1" class="cls-2" fill-rule="evenodd" fill="#212121"/>
</svg>
