<svg xmlns="http://www.w3.org/2000/svg" xmlns:xlink="http://www.w3.org/1999/xlink" preserveAspectRatio="xMidYMid" width="49" height="70" viewBox="0 0 49 70">
  <path d="M38.868,64.877 C38.868,64.877 39.538,60.856 35.405,55.941 C39.426,44.661 39.985,34.386 39.985,34.386 C39.985,34.386 48.250,36.284 48.250,44.438 C48.250,58.399 38.868,64.877 38.868,64.877 ZM16.083,59.976 C16.083,59.976 10.548,42.212 10.548,34.840 C10.548,31.525 10.921,28.574 11.502,25.897 C11.502,25.897 36.724,25.897 36.724,25.897 C37.310,28.576 37.685,31.528 37.685,34.843 C37.685,42.102 32.166,59.976 32.166,59.976 C32.166,59.976 16.083,59.976 16.083,59.976 ZM24.106,29.958 C21.269,29.958 18.969,32.258 18.969,35.096 C18.969,37.933 21.269,40.234 24.106,40.234 C26.944,40.234 29.244,37.933 29.244,35.096 C29.244,32.258 26.944,29.958 24.106,29.958 ZM23.000,7.012 C23.000,7.012 23.000,0.016 23.000,0.016 C23.000,0.016 25.000,0.016 25.000,0.016 C25.000,0.016 25.000,6.834 25.000,6.834 C27.286,8.498 33.472,13.789 36.269,23.985 C36.269,23.985 11.952,23.985 11.952,23.985 C14.655,14.071 20.542,8.837 23.000,7.012 ZM9.382,64.877 C9.382,64.877 0.000,58.399 0.000,44.438 C0.000,36.284 8.265,34.386 8.265,34.386 C8.265,34.386 8.823,44.661 12.844,55.941 C8.712,60.856 9.382,64.877 9.382,64.877 ZM27.507,65.909 C27.507,65.909 25.832,64.234 25.832,64.234 C25.832,64.234 24.045,69.818 24.045,69.818 C24.045,69.818 21.923,64.234 21.923,64.234 C21.923,64.234 20.471,67.137 20.471,67.137 C20.471,67.137 18.349,61.888 18.349,61.888 C18.349,61.888 29.853,61.888 29.853,61.888 C29.853,61.888 27.507,65.909 27.507,65.909 Z" id="path-1" class="cls-2" fill-rule="evenodd" fill="#d1d1d1"/>
</svg>
