<svg xmlns="http://www.w3.org/2000/svg" xmlns:xlink="http://www.w3.org/1999/xlink" preserveAspectRatio="xMidYMid"
	 width="51.938px" height="52.153px" viewBox="0 0 51.938 52.153">
   <path fill="#aaaaaa" d="M21.255,42.671c5.033,0,9.657-1.774,13.303-4.721l13.345,13.504c0.462,0.467,1.068,0.699,1.675,0.699 c0.603,0,1.205-0.23,1.665-0.689c0.925-0.924,0.929-2.426,0.009-3.354L37.885,34.584c2.887-3.644,4.625-8.242,4.625-13.248 C42.51,9.571,32.975,0,21.255,0S0,9.571,0,21.336S9.535,42.671,21.255,42.671z M21.255,4.741c9.115,0,16.531,7.444,16.531,16.595 S30.37,37.93,21.255,37.93c-9.116,0-16.532-7.443-16.532-16.594S12.139,4.741,21.255,4.741z"/>
</svg>
