<svg xmlns="http://www.w3.org/2000/svg" xmlns:xlink="http://www.w3.org/1999/xlink" preserveAspectRatio="xMidYMid" width="24" height="22" viewBox="0 0 24 22">
  <path d="M0.322,10.402 C0.131,10.327 0.005,10.144 0.003,9.939 C0.000,9.734 0.123,9.548 0.312,9.470 C0.312,9.470 23.181,-0.005 23.181,-0.005 C23.181,-0.005 8.634,13.645 8.634,13.645 C8.634,13.645 0.322,10.402 0.322,10.402 ZM23.998,0.603 C23.998,0.603 20.016,19.079 20.016,19.079 C19.982,19.234 19.878,19.364 19.734,19.430 C19.668,19.460 19.597,19.475 19.526,19.475 C19.443,19.475 19.360,19.454 19.285,19.413 C19.285,19.413 13.238,16.077 13.238,16.077 C13.238,16.077 9.947,21.737 9.947,21.737 C9.855,21.894 9.689,21.986 9.514,21.986 C9.471,21.986 9.427,21.980 9.384,21.969 C9.165,21.909 9.014,21.710 9.014,21.484 C9.014,21.484 9.014,14.644 9.014,14.644 C9.014,14.644 9.023,14.655 9.023,14.655 C9.023,14.655 23.998,0.603 23.998,0.603 Z" id="path-1" class="cls-2" fill-rule="evenodd" fill="#ffffff"/>
</svg>
