<svg xmlns="http://www.w3.org/2000/svg" xmlns:xlink="http://www.w3.org/1999/xlink" preserveAspectRatio="xMidYMid" width="33" height="33" viewBox="0 0 33 33">
  <path d="M16.500,-0.000 C7.402,-0.000 0.000,7.402 0.000,16.500 C0.000,25.598 7.402,33.000 16.500,33.000 C25.598,33.000 33.000,25.598 33.000,16.500 C33.000,7.402 25.598,-0.000 16.500,-0.000 ZM25.764,11.918 C25.764,11.918 28.304,10.867 28.304,10.867 C28.654,10.723 29.058,10.888 29.203,11.239 C29.348,11.590 29.181,11.992 28.831,12.137 C28.831,12.137 26.290,13.189 26.290,13.189 C26.204,13.224 26.115,13.241 26.027,13.241 C25.757,13.241 25.501,13.081 25.392,12.817 C25.247,12.466 25.413,12.063 25.764,11.918 ZM19.811,6.709 C19.811,6.709 20.864,4.169 20.864,4.169 C21.010,3.818 21.414,3.653 21.762,3.797 C22.114,3.943 22.280,4.345 22.134,4.696 C22.134,4.696 21.082,7.235 21.082,7.235 C20.972,7.500 20.716,7.660 20.446,7.660 C20.359,7.660 20.269,7.643 20.183,7.607 C19.832,7.462 19.666,7.060 19.811,6.709 ZM15.735,3.692 C15.735,3.312 16.043,3.004 16.423,3.004 C16.803,3.004 17.110,3.312 17.110,3.692 C17.110,3.692 17.110,6.442 17.110,6.442 C17.110,6.821 16.803,7.130 16.423,7.130 C16.043,7.130 15.735,6.821 15.735,6.442 C15.735,6.442 15.735,3.692 15.735,3.692 ZM11.239,3.797 C11.590,3.652 11.992,3.818 12.137,4.169 C12.137,4.169 13.189,6.709 13.189,6.709 C13.334,7.060 13.167,7.462 12.817,7.607 C12.731,7.643 12.642,7.660 12.554,7.660 C12.284,7.660 12.028,7.500 11.919,7.235 C11.919,7.235 10.867,4.695 10.867,4.695 C10.722,4.344 10.889,3.942 11.239,3.797 ZM2.673,16.754 C2.673,16.375 2.980,16.067 3.360,16.067 C3.360,16.067 6.110,16.067 6.110,16.067 C6.490,16.067 6.798,16.375 6.798,16.754 C6.798,17.134 6.490,17.442 6.110,17.442 C6.110,17.442 3.360,17.442 3.360,17.442 C2.980,17.442 2.673,17.134 2.673,16.754 ZM7.236,21.082 C7.236,21.082 4.694,22.133 4.694,22.133 C4.608,22.169 4.519,22.186 4.431,22.186 C4.161,22.186 3.905,22.026 3.795,21.761 C3.650,21.410 3.817,21.008 4.167,20.863 C4.167,20.863 6.709,19.811 6.709,19.811 C7.059,19.666 7.463,19.833 7.607,20.183 C7.753,20.534 7.586,20.937 7.236,21.082 ZM7.607,12.817 C7.498,13.081 7.242,13.241 6.972,13.241 C6.884,13.241 6.795,13.224 6.709,13.189 C6.709,13.189 4.169,12.135 4.169,12.135 C3.818,11.990 3.652,11.588 3.797,11.237 C3.943,10.886 4.347,10.721 4.696,10.865 C4.696,10.865 7.236,11.918 7.236,11.918 C7.587,12.064 7.753,12.466 7.607,12.817 ZM8.721,9.694 C8.721,9.694 6.778,7.749 6.778,7.749 C6.510,7.480 6.510,7.045 6.778,6.777 C7.047,6.509 7.482,6.508 7.751,6.777 C7.751,6.777 9.694,8.722 9.694,8.722 C9.962,8.991 9.962,9.426 9.694,9.694 C9.559,9.828 9.383,9.895 9.207,9.895 C9.032,9.895 8.856,9.828 8.721,9.694 ZM23.298,26.838 C23.298,27.217 22.990,27.525 22.610,27.525 C22.610,27.525 10.235,27.525 10.235,27.525 C9.855,27.525 9.548,27.217 9.548,26.838 C9.548,26.838 9.548,22.713 9.548,22.713 C9.548,22.333 9.855,22.025 10.235,22.025 C10.235,22.025 22.610,22.025 22.610,22.025 C22.990,22.025 23.298,22.333 23.298,22.713 C23.298,22.713 23.298,26.838 23.298,26.838 ZM18.860,15.112 C19.102,15.521 19.250,15.992 19.250,16.500 C19.250,18.016 18.017,19.250 16.500,19.250 C14.983,19.250 13.750,18.016 13.750,16.500 C13.750,14.984 14.983,13.750 16.500,13.750 C17.009,13.750 17.479,13.898 17.888,14.139 C17.888,14.139 24.277,7.750 24.277,7.750 C24.546,7.481 24.981,7.481 25.250,7.750 C25.518,8.018 25.518,8.454 25.250,8.722 C25.250,8.722 18.860,15.112 18.860,15.112 ZM29.202,21.762 C29.093,22.027 28.836,22.187 28.567,22.187 C28.479,22.187 28.390,22.170 28.304,22.134 C28.304,22.134 25.764,21.082 25.764,21.082 C25.413,20.936 25.246,20.534 25.392,20.183 C25.537,19.832 25.942,19.666 26.290,19.811 C26.290,19.811 28.830,20.864 28.830,20.864 C29.181,21.009 29.348,21.412 29.202,21.762 ZM29.561,17.189 C29.561,17.189 29.561,17.189 29.561,17.189 C29.561,17.189 26.813,17.188 26.813,17.188 C26.433,17.187 26.125,16.879 26.125,16.500 C26.125,16.120 26.433,15.813 26.813,15.813 C26.813,15.813 26.813,15.813 26.813,15.813 C26.813,15.813 29.561,15.814 29.561,15.814 C29.941,15.814 30.249,16.122 30.249,16.502 C30.249,16.881 29.941,17.189 29.561,17.189 Z" id="path-1" class="cls-2" fill-rule="evenodd" fill="#dcdcdc"/>
</svg>
