<svg xmlns="http://www.w3.org/2000/svg" xmlns:xlink="http://www.w3.org/1999/xlink" preserveAspectRatio="xMidYMid" width="28" height="37" viewBox="0 0 28 37">
  <path d="M22.839,29.292 C22.839,29.292 22.102,29.292 22.102,29.292 C22.102,29.292 22.102,33.146 22.102,33.146 C22.102,35.271 20.449,37.000 18.416,37.000 C18.416,37.000 5.147,37.000 5.147,37.000 C3.115,37.000 1.461,35.271 1.461,33.146 C1.461,33.146 1.461,17.729 1.461,17.729 C1.461,17.303 1.792,16.958 2.199,16.958 C2.199,16.958 21.365,16.958 21.365,16.958 C21.772,16.958 22.102,17.303 22.102,17.729 C22.102,17.729 22.102,18.500 22.102,18.500 C22.102,18.500 22.839,18.500 22.839,18.500 C25.685,18.500 28.000,20.920 28.000,23.896 C28.000,26.871 25.685,29.292 22.839,29.292 ZM22.839,20.042 C22.839,20.042 22.102,20.042 22.102,20.042 C22.102,20.042 22.102,27.750 22.102,27.750 C22.102,27.750 22.839,27.750 22.839,27.750 C24.872,27.750 26.525,26.021 26.525,23.896 C26.525,21.771 24.872,20.042 22.839,20.042 ZM22.799,10.199 C22.799,10.199 20.552,14.985 20.552,14.985 C20.428,15.249 20.172,15.417 19.891,15.417 C19.891,15.417 16.942,15.417 16.942,15.417 C16.666,15.417 16.414,15.256 16.287,15.000 C16.160,14.744 16.181,14.435 16.340,14.200 C16.340,14.200 16.702,13.666 16.702,13.666 C16.780,13.590 16.845,13.500 16.886,13.394 C16.886,13.394 19.798,9.091 19.798,9.091 C19.547,8.817 19.339,8.510 19.202,8.167 C18.889,7.388 18.907,6.486 19.253,5.629 C19.434,5.180 19.734,4.784 20.051,4.366 C20.883,3.269 21.352,2.534 20.574,1.292 C20.408,1.027 20.413,0.684 20.587,0.425 C20.761,0.167 21.067,0.045 21.364,0.120 C24.704,0.965 25.915,4.071 25.626,6.598 C25.399,8.594 24.282,9.976 22.799,10.199 ZM22.445,2.268 C22.530,3.578 21.767,4.583 21.207,5.323 C20.953,5.657 20.715,5.973 20.612,6.228 C20.419,6.707 20.401,7.171 20.561,7.571 C20.671,7.844 20.866,8.076 21.123,8.264 C21.123,8.264 22.380,8.702 22.380,8.702 C22.380,8.702 22.381,8.702 22.381,8.702 C23.503,8.702 24.042,7.470 24.162,6.415 C24.328,4.963 23.828,3.253 22.445,2.268 ZM15.468,15.417 C15.468,15.417 9.570,15.417 9.570,15.417 C9.176,15.417 8.861,15.091 8.840,14.684 C8.820,15.091 8.505,15.417 8.111,15.417 C8.106,15.417 8.101,15.417 8.096,15.417 C8.096,15.417 3.673,15.417 3.673,15.417 C3.441,15.417 3.222,15.302 3.083,15.108 C3.083,15.108 1.394,12.753 1.394,12.753 C1.394,12.753 5.353,9.303 5.353,9.303 C5.353,9.303 8.624,14.092 8.624,14.092 C8.745,14.215 8.815,14.385 8.833,14.571 C8.833,14.571 8.833,0.771 8.833,0.771 C8.833,0.345 9.163,-0.000 9.570,-0.000 C9.570,-0.000 15.468,-0.000 15.468,-0.000 C15.875,-0.000 16.205,0.345 16.205,0.771 C16.205,0.771 16.205,3.083 16.205,3.083 C16.205,3.083 12.519,3.083 12.519,3.083 C12.112,3.083 11.782,3.428 11.782,3.854 C11.782,4.280 12.112,4.625 12.519,4.625 C12.519,4.625 16.205,4.625 16.205,4.625 C16.205,4.625 16.205,6.167 16.205,6.167 C16.205,6.167 14.362,6.167 14.362,6.167 C13.955,6.167 13.625,6.512 13.625,6.938 C13.625,7.363 13.955,7.708 14.362,7.708 C14.362,7.708 16.205,7.708 16.205,7.708 C16.205,7.708 16.205,9.250 16.205,9.250 C16.205,9.250 12.519,9.250 12.519,9.250 C12.112,9.250 11.782,9.595 11.782,10.021 C11.782,10.446 12.112,10.791 12.519,10.791 C12.519,10.791 16.205,10.791 16.205,10.791 C16.205,10.791 16.205,12.333 16.205,12.333 C16.205,12.333 14.362,12.333 14.362,12.333 C13.955,12.333 13.625,12.678 13.625,13.104 C13.625,13.530 13.955,13.875 14.362,13.875 C14.362,13.875 14.730,13.875 14.730,13.875 C14.730,13.875 16.205,13.875 16.205,13.875 C16.205,13.875 16.205,14.646 16.205,14.646 C16.205,15.071 15.875,15.417 15.468,15.417 ZM-0.003,7.064 C-0.050,6.768 0.072,6.469 0.309,6.300 C0.547,6.131 0.857,6.122 1.104,6.277 C1.104,6.277 4.255,8.253 4.255,8.253 C4.255,8.253 0.683,11.366 0.683,11.366 C0.683,11.366 -0.003,7.064 -0.003,7.064 Z" id="path-1" class="cls-2" fill-rule="evenodd" fill="#d31145"/>
</svg>
