<svg xmlns="http://www.w3.org/2000/svg" xmlns:xlink="http://www.w3.org/1999/xlink" preserveAspectRatio="xMidYMid" width="35" height="30" viewBox="0 0 35 30">
  <path d="M34.561,22.826 C34.561,22.826 18.229,30.011 18.229,30.011 C18.229,30.011 18.229,18.204 18.229,18.204 C18.229,18.204 35.000,10.736 35.000,10.736 C35.000,10.736 35.000,22.149 35.000,22.149 C35.000,22.443 34.828,22.709 34.561,22.826 ZM17.500,16.916 C17.500,16.916 0.831,9.495 0.831,9.495 C0.831,9.495 3.230,8.439 3.230,8.439 C3.030,8.116 2.917,7.765 2.917,7.392 C2.917,5.710 5.111,4.441 8.021,4.441 C9.180,4.441 10.223,4.645 11.062,4.994 C11.062,4.994 12.844,4.210 12.844,4.210 C12.558,3.835 12.396,3.416 12.396,2.965 C12.396,1.283 14.590,0.014 17.500,0.014 C20.410,0.014 22.604,1.283 22.604,2.965 C22.604,3.416 22.443,3.835 22.156,4.210 C22.156,4.210 24.311,5.157 24.311,5.157 C25.201,4.708 26.378,4.441 27.708,4.441 C30.618,4.441 32.813,5.710 32.813,7.392 C32.813,7.862 32.636,8.297 32.327,8.684 C32.327,8.684 34.169,9.495 34.169,9.495 C34.169,9.495 17.500,16.916 17.500,16.916 ZM8.021,5.917 C5.796,5.917 4.375,6.791 4.375,7.392 C4.375,7.994 5.796,8.868 8.021,8.868 C10.246,8.868 11.667,7.994 11.667,7.392 C11.667,6.791 10.246,5.917 8.021,5.917 ZM17.500,1.490 C15.275,1.490 13.854,2.364 13.854,2.965 C13.854,3.567 15.275,4.441 17.500,4.441 C19.725,4.441 21.146,3.567 21.146,2.965 C21.146,2.364 19.725,1.490 17.500,1.490 ZM17.500,9.606 C15.275,9.606 13.854,10.480 13.854,11.082 C13.854,11.683 15.275,12.557 17.500,12.557 C19.725,12.557 21.146,11.683 21.146,11.082 C21.146,10.480 19.725,9.606 17.500,9.606 ZM27.708,5.917 C25.483,5.917 24.063,6.791 24.063,7.392 C24.063,7.994 25.483,8.868 27.708,8.868 C29.934,8.868 31.354,7.994 31.354,7.392 C31.354,6.791 29.934,5.917 27.708,5.917 ZM16.771,30.011 C16.771,30.011 0.439,22.826 0.439,22.826 C0.172,22.709 0.000,22.443 0.000,22.149 C0.000,22.149 0.000,10.736 0.000,10.736 C0.000,10.736 16.771,18.204 16.771,18.204 C16.771,18.204 16.771,30.011 16.771,30.011 Z" id="path-1" class="cls-2" fill-rule="evenodd" fill="#d31145"/>
</svg>
