<svg xmlns="http://www.w3.org/2000/svg" xmlns:xlink="http://www.w3.org/1999/xlink" preserveAspectRatio="xMidYMid" width="32" height="33" viewBox="0 0 32 33">
  <path d="M27.789,16.513 C29.082,15.080 30.010,13.669 30.550,12.312 C31.174,10.739 31.152,9.373 30.483,8.254 C29.812,7.132 28.584,6.430 26.834,6.166 C25.332,5.940 23.591,5.998 21.637,6.341 C20.990,4.551 20.177,3.078 19.218,1.958 C18.101,0.654 16.849,-0.007 15.496,-0.007 C14.142,-0.007 12.888,0.657 11.773,1.969 C10.813,3.095 10.006,4.569 9.372,6.356 C7.419,6.002 5.678,5.940 4.176,6.166 C2.427,6.430 1.199,7.132 0.527,8.255 C-0.142,9.374 -0.164,10.740 0.460,12.313 C0.997,13.664 1.929,15.075 3.235,16.511 C1.930,17.949 1.001,19.357 0.470,20.704 C-0.149,22.272 -0.123,23.634 0.547,24.750 C1.216,25.872 2.440,26.578 4.183,26.847 C5.680,27.080 7.420,27.020 9.374,26.667 C10.019,28.451 10.827,29.923 11.781,31.046 C12.891,32.351 14.141,33.012 15.496,33.012 C16.849,33.012 18.102,32.351 19.219,31.048 C20.177,29.928 20.988,28.452 21.636,26.654 C23.588,27.027 25.325,27.097 26.816,26.865 C28.550,26.596 29.778,25.893 30.465,24.768 C31.134,23.649 31.156,22.284 30.531,20.710 C29.995,19.360 29.073,17.950 27.789,16.513 ZM13.277,29.712 C12.579,28.824 11.978,27.636 11.486,26.178 C12.842,25.810 14.193,25.342 15.514,24.783 C16.838,25.350 18.188,25.818 19.538,26.180 C19.038,27.634 18.429,28.820 17.725,29.711 C16.287,31.533 14.706,31.533 13.277,29.712 ZM17.725,3.301 C18.429,4.199 19.038,5.388 19.538,6.842 C18.279,7.182 16.930,7.646 15.514,8.226 C14.139,7.667 12.783,7.195 11.471,6.821 C11.971,5.381 12.578,4.198 13.278,3.301 C14.708,1.469 16.285,1.470 17.725,3.301 ZM23.239,15.269 C23.791,15.700 24.293,16.117 24.744,16.519 C24.438,16.801 24.118,17.080 23.789,17.350 C23.608,17.498 23.426,17.646 23.240,17.796 C23.257,17.342 23.265,16.907 23.265,16.494 C23.265,16.119 23.257,15.709 23.239,15.269 ZM23.016,12.395 C22.853,10.978 22.597,9.619 22.249,8.344 C23.818,8.035 25.200,7.944 26.362,8.075 C27.547,8.209 28.341,8.595 28.720,9.219 C29.108,9.868 29.065,10.697 28.589,11.754 C28.129,12.779 27.355,13.875 26.284,15.017 C25.274,14.091 24.178,13.212 23.016,12.395 ZM15.514,22.421 C14.583,22.007 13.657,21.542 12.762,21.037 C11.741,20.452 10.868,19.919 10.163,19.448 C10.085,18.588 10.046,17.596 10.046,16.494 C10.046,15.395 10.085,14.410 10.162,13.561 C10.927,13.062 11.810,12.527 12.786,11.975 C13.664,11.499 14.581,11.039 15.514,10.608 C16.443,11.043 17.360,11.502 18.230,11.968 C19.145,12.493 20.030,13.024 20.866,13.550 C20.943,14.417 20.982,15.406 20.982,16.494 C20.982,17.596 20.943,18.593 20.865,19.463 C20.090,19.970 19.213,20.499 18.249,21.038 C17.385,21.532 16.466,21.997 15.514,22.421 ZM19.366,10.103 C19.023,9.911 18.640,9.706 18.223,9.490 C18.884,9.249 19.522,9.038 20.131,8.858 C20.280,9.486 20.410,10.122 20.517,10.760 C20.148,10.541 19.764,10.321 19.366,10.103 ZM10.893,8.863 C11.513,9.051 12.141,9.261 12.776,9.493 C12.383,9.692 12.006,9.896 11.650,10.101 C11.249,10.320 10.865,10.539 10.499,10.757 C10.611,10.113 10.742,9.479 10.893,8.863 ZM7.790,17.781 C7.234,17.354 6.725,16.931 6.266,16.514 C6.734,16.094 7.240,15.676 7.783,15.263 C7.770,15.665 7.764,16.074 7.764,16.494 C7.764,16.938 7.773,17.368 7.790,17.781 ZM8.765,8.313 C8.419,9.628 8.166,10.986 8.011,12.362 C6.813,13.214 5.711,14.104 4.725,15.015 C3.654,13.875 2.877,12.779 2.410,11.752 C1.931,10.697 1.891,9.871 2.289,9.223 C2.676,8.586 3.448,8.208 4.650,8.067 C5.013,8.025 5.401,8.003 5.804,8.003 C6.692,8.003 7.687,8.108 8.765,8.313 ZM2.421,21.268 C2.883,20.240 3.651,19.145 4.708,18.009 C5.704,18.931 6.812,19.826 8.011,20.678 C8.166,22.050 8.418,23.392 8.763,24.679 C7.197,24.986 5.817,25.077 4.657,24.948 C3.464,24.813 2.695,24.433 2.304,23.778 C1.909,23.144 1.947,22.323 2.421,21.268 ZM11.615,22.895 C11.974,23.108 12.365,23.320 12.783,23.533 C12.129,23.774 11.494,23.981 10.883,24.155 C10.734,23.529 10.608,22.901 10.505,22.276 C10.875,22.495 11.247,22.703 11.615,22.895 ZM20.131,24.156 C19.516,23.984 18.879,23.776 18.226,23.536 C18.598,23.345 18.990,23.135 19.399,22.904 C19.780,22.693 20.152,22.482 20.513,22.272 C20.398,22.944 20.271,23.574 20.131,24.156 ZM22.242,24.681 C22.580,23.391 22.833,22.044 22.997,20.663 C24.190,19.817 25.292,18.928 26.283,18.011 C27.341,19.160 28.110,20.259 28.572,21.285 C29.046,22.342 29.089,23.165 28.704,23.800 C28.322,24.429 27.530,24.818 26.351,24.956 C26.005,24.997 25.635,25.017 25.251,25.017 C24.353,25.017 23.343,24.904 22.242,24.681 Z" id="path-1" class="cls-2" fill-rule="evenodd" fill="#d31145"/>
</svg>
