<svg xmlns="http://www.w3.org/2000/svg" xmlns:xlink="http://www.w3.org/1999/xlink" preserveAspectRatio="xMidYMid" width="24" height="34" viewBox="0 0 24 34">
  <path d="M22.777,20.850 C22.085,20.850 21.502,20.360 21.480,19.763 C21.480,19.763 21.378,18.126 21.378,18.126 C21.308,17.531 21.804,17.044 22.480,17.044 C23.156,17.044 23.788,17.528 23.883,18.121 C23.883,18.121 23.999,19.763 23.999,19.763 C24.018,20.360 23.468,20.850 22.777,20.850 ZM22.302,16.240 C21.646,16.240 20.965,15.767 20.788,15.189 C20.788,15.189 20.487,13.733 20.232,13.230 C19.977,12.727 20.012,12.315 20.310,12.315 C20.608,12.315 21.242,12.532 21.717,12.796 C22.193,13.061 22.861,15.299 22.861,15.299 C23.209,15.817 22.957,16.240 22.302,16.240 ZM20.303,19.763 C20.325,20.361 19.773,20.850 19.078,20.850 C19.078,20.850 15.861,20.850 15.861,20.850 C15.164,20.850 14.594,20.361 14.594,19.763 C14.594,19.763 14.594,18.131 14.594,18.131 C14.594,17.533 15.164,17.044 15.861,17.044 C15.861,17.044 18.809,17.044 18.809,17.044 C19.505,17.044 20.132,17.531 20.202,18.126 C20.202,18.126 20.303,19.763 20.303,19.763 ZM18.511,11.711 C16.546,11.711 9.336,11.711 9.336,11.711 C9.336,11.711 7.205,12.013 9.242,10.264 C11.279,8.516 10.272,7.330 10.834,6.647 C11.099,6.324 10.968,6.279 10.735,6.368 C10.735,6.368 10.735,6.369 10.735,6.369 C10.391,6.499 10.267,6.859 10.222,7.075 C10.216,7.128 10.208,7.180 10.199,7.232 C10.199,7.240 10.198,7.246 10.198,7.246 C10.198,7.246 10.197,7.247 10.197,7.247 C9.846,9.384 7.708,11.028 5.122,11.028 C5.122,11.028 4.491,11.022 4.159,11.439 C4.019,11.910 3.885,12.393 3.763,12.877 C3.015,15.892 3.109,20.313 3.530,25.820 C3.530,25.820 3.810,27.066 3.436,27.187 C3.062,27.307 1.750,21.077 2.032,15.771 C2.114,14.216 2.470,12.644 2.943,11.190 C2.943,11.190 2.988,10.747 2.349,10.329 C2.345,10.326 2.341,10.323 2.336,10.320 C0.928,9.536 -0.005,8.175 -0.005,6.626 C-0.005,4.195 2.290,2.225 5.121,2.225 C5.653,2.225 6.165,2.294 6.647,2.423 C7.653,2.598 7.946,2.102 7.946,2.102 C8.212,1.527 8.727,0.496 8.727,0.496 C8.727,0.496 8.847,-0.006 9.746,-0.006 C9.746,-0.006 15.861,-0.006 15.861,-0.006 C15.861,-0.006 16.485,0.006 16.846,0.317 C17.208,0.627 17.575,0.697 17.575,0.697 C17.575,0.697 18.183,0.456 18.183,1.219 C18.183,1.540 18.183,1.684 18.183,1.742 C18.183,1.742 18.137,2.104 17.715,2.466 C17.294,2.828 17.388,2.948 17.060,3.229 C16.732,3.510 16.638,3.350 16.638,3.712 C16.638,4.074 16.873,6.083 16.873,6.083 C16.873,6.083 17.481,6.566 17.481,6.887 C17.481,7.209 17.716,9.179 18.886,10.304 C20.056,11.430 20.478,11.711 18.511,11.711 ZM6.709,3.038 C6.216,2.876 5.681,2.788 5.122,2.788 C2.653,2.788 0.651,4.506 0.651,6.627 C0.651,7.924 1.402,9.070 2.549,9.765 C2.631,9.802 3.246,10.059 3.559,9.511 C3.559,9.511 3.560,9.510 3.560,9.510 C4.653,6.819 5.970,4.826 6.246,4.637 C6.575,4.411 6.904,4.204 7.103,3.878 C7.203,3.302 6.759,3.062 6.709,3.038 ZM8.852,6.227 C8.744,6.213 8.626,6.205 8.493,6.205 C6.855,6.205 6.246,6.245 6.012,6.566 C5.861,6.775 5.276,8.100 4.679,9.827 C4.655,9.904 4.506,10.450 5.192,10.464 C7.381,10.436 9.188,9.057 9.533,7.255 C9.688,6.421 8.970,6.250 8.852,6.227 ZM5.493,17.045 C6.184,17.045 6.693,17.532 6.623,18.126 C6.623,18.126 6.521,19.763 6.521,19.763 C6.499,20.361 5.912,20.850 5.215,20.850 C5.215,20.850 5.179,20.850 5.179,20.850 C4.483,20.850 3.929,20.361 3.947,19.763 C3.947,19.763 4.063,18.121 4.063,18.121 C4.159,17.529 4.802,17.045 5.493,17.045 ZM5.222,21.654 C5.222,21.654 5.231,21.654 5.231,21.654 C5.926,21.654 6.509,21.971 6.525,22.359 C6.525,22.359 6.525,22.359 6.549,22.726 C6.618,23.734 6.743,24.595 6.743,24.595 C6.830,25.188 6.391,25.673 5.769,25.674 C5.147,25.674 4.522,25.195 4.380,24.610 C4.380,24.610 4.226,23.971 4.097,23.007 C4.034,22.537 4.034,22.537 4.034,22.537 C3.991,22.051 4.526,21.654 5.222,21.654 ZM5.964,26.478 C6.559,26.478 7.157,26.957 7.292,27.544 C7.292,27.544 7.681,29.068 7.681,29.068 C7.850,29.647 7.679,30.122 7.301,30.122 C6.923,30.122 6.362,29.684 6.055,29.146 C6.055,29.146 5.301,27.502 5.301,27.502 C5.070,26.939 5.368,26.478 5.964,26.478 ZM7.718,30.926 C8.015,30.926 8.613,31.897 8.755,32.248 C8.897,32.600 8.172,32.078 7.819,31.669 C7.467,31.260 7.422,30.926 7.718,30.926 ZM9.489,26.478 C9.489,26.478 12.018,26.478 12.018,26.478 C12.714,26.478 13.284,26.967 13.283,27.564 C13.283,27.564 13.283,29.035 13.283,29.035 C13.283,29.632 12.713,30.121 12.017,30.121 C12.017,30.121 10.430,30.121 10.430,30.121 C9.734,30.121 9.026,29.647 8.857,29.067 C8.857,29.067 8.468,27.544 8.468,27.544 C8.333,26.957 8.792,26.478 9.489,26.478 ZM13.284,24.587 C13.284,25.184 12.714,25.673 12.018,25.673 C12.018,25.673 9.341,25.673 9.341,25.673 C8.645,25.673 8.006,25.188 7.919,24.595 C7.919,24.595 7.794,23.733 7.725,22.725 C7.701,22.358 7.701,22.358 7.701,22.358 C7.685,21.971 8.241,21.654 8.938,21.654 C8.938,21.654 12.018,21.654 12.018,21.654 C12.714,21.654 13.284,22.143 13.284,22.740 C13.284,22.740 13.284,24.587 13.284,24.587 ZM7.213,15.189 C7.036,15.767 6.342,16.240 5.671,16.240 C5.000,16.240 4.736,15.817 5.085,15.299 C5.085,15.299 5.753,13.061 6.228,12.796 C6.704,12.531 7.350,12.315 7.663,12.314 C7.977,12.314 8.025,12.726 7.769,13.230 C7.513,13.733 7.213,15.189 7.213,15.189 ZM12.018,16.240 C12.018,16.240 9.333,16.240 9.333,16.240 C8.636,16.240 8.211,15.767 8.388,15.189 C8.388,15.189 8.689,13.733 8.944,13.230 C9.200,12.727 9.979,12.315 10.674,12.315 C10.674,12.315 12.018,12.315 12.018,12.315 C12.714,12.315 13.284,12.804 13.284,13.402 C13.284,13.402 13.284,15.154 13.284,15.154 C13.284,15.752 12.714,16.240 12.018,16.240 ZM13.284,19.763 C13.284,20.361 12.714,20.850 12.018,20.850 C12.018,20.850 8.923,20.850 8.923,20.850 C8.227,20.850 7.675,20.360 7.697,19.763 C7.697,19.763 7.799,18.126 7.799,18.126 C7.869,17.531 8.495,17.044 9.191,17.044 C9.191,17.044 12.018,17.044 12.018,17.044 C12.714,17.044 13.284,17.533 13.284,18.131 C13.284,18.131 13.284,19.763 13.284,19.763 ZM10.700,30.926 C10.700,30.926 12.018,30.926 12.018,30.926 C12.714,30.926 13.284,31.415 13.284,32.013 C13.284,32.013 13.284,32.915 13.284,32.915 C13.284,33.512 12.714,34.002 12.018,34.002 C12.018,34.002 11.947,34.002 11.947,34.002 C11.251,34.002 10.488,33.559 10.251,33.017 C10.014,32.475 10.003,30.926 10.700,30.926 ZM15.860,12.314 C15.860,12.314 17.325,12.314 17.325,12.314 C18.022,12.314 18.800,12.726 19.055,13.230 C19.311,13.733 19.612,15.189 19.612,15.189 C19.789,15.767 19.363,16.240 18.667,16.240 C18.667,16.240 15.861,16.240 15.861,16.240 C15.164,16.240 14.594,15.752 14.594,15.153 C14.594,15.153 14.594,13.402 14.594,13.402 C14.594,12.803 15.164,12.314 15.860,12.314 ZM15.861,21.654 C15.861,21.654 19.063,21.654 19.063,21.654 C19.760,21.654 20.315,21.971 20.300,22.358 C20.300,22.358 20.300,22.358 20.275,22.725 C20.207,23.733 20.081,24.595 20.081,24.595 C19.995,25.188 19.355,25.673 18.659,25.673 C18.659,25.673 15.861,25.673 15.861,25.673 C15.164,25.673 14.594,25.184 14.594,24.587 C14.594,24.587 14.594,22.740 14.594,22.740 C14.594,22.143 15.164,21.654 15.861,21.654 ZM15.861,26.478 C15.861,26.478 18.511,26.478 18.511,26.478 C19.208,26.478 19.668,26.957 19.533,27.544 C19.533,27.544 19.143,29.068 19.143,29.068 C18.974,29.647 18.266,30.122 17.570,30.122 C17.570,30.122 15.861,30.122 15.861,30.122 C15.164,30.122 14.594,29.632 14.594,29.035 C14.594,29.035 14.594,27.564 14.594,27.564 C14.594,26.967 15.164,26.478 15.861,26.478 ZM15.861,30.926 C15.861,30.926 17.300,30.926 17.300,30.926 C17.997,30.926 17.987,32.474 17.749,33.017 C17.513,33.559 16.749,34.002 16.053,34.002 C16.053,34.002 15.861,34.002 15.861,34.002 C15.164,34.002 14.594,33.512 14.594,32.915 C14.594,32.915 14.594,32.013 14.594,32.013 C14.594,31.415 15.164,30.926 15.861,30.926 ZM20.255,30.926 C20.536,30.926 19.905,31.969 19.590,32.269 C19.277,32.567 19.131,32.535 19.267,32.197 C19.403,31.859 19.973,30.926 20.255,30.926 ZM20.320,29.067 C20.320,29.067 20.709,27.544 20.709,27.544 C20.844,26.957 21.429,26.478 22.010,26.478 C22.590,26.478 22.876,26.939 22.645,27.502 C22.645,27.502 21.891,29.146 21.891,29.146 C21.583,29.683 21.036,30.121 20.672,30.121 C20.310,30.121 20.151,29.647 20.320,29.067 ZM21.258,24.595 C21.258,24.595 21.384,23.733 21.451,22.725 C21.476,22.358 21.476,22.358 21.476,22.358 C21.492,21.971 22.063,21.654 22.747,21.654 C23.430,21.654 23.954,22.051 23.912,22.536 C23.912,22.536 23.912,22.536 23.848,23.006 C23.719,23.971 23.565,24.609 23.565,24.609 C23.423,25.194 22.811,25.673 22.204,25.673 C21.597,25.673 21.171,25.188 21.258,24.595 Z" id="path-1" class="cls-2" fill-rule="evenodd" fill="#d31145"/>
</svg>
