<svg xmlns="http://www.w3.org/2000/svg" xmlns:xlink="http://www.w3.org/1999/xlink" preserveAspectRatio="xMidYMid" width="31" height="30" viewBox="0 0 31 30">
  <path d="M22.972,18.006 C22.860,18.090 22.732,18.130 22.605,18.130 C22.400,18.130 22.199,18.025 22.073,17.830 C21.870,17.512 21.943,17.078 22.237,16.858 C22.237,16.858 30.212,10.888 30.212,10.888 C30.212,10.888 15.869,0.101 15.869,0.101 C15.647,-0.065 15.353,-0.065 15.131,0.101 C15.131,0.101 0.788,10.888 0.788,10.888 C0.788,10.888 8.764,16.858 8.764,16.858 C9.057,17.078 9.130,17.512 8.927,17.830 C8.801,18.025 8.600,18.130 8.395,18.130 C8.269,18.130 8.140,18.090 8.028,18.006 C8.028,18.006 -0.000,11.997 -0.000,11.997 C-0.000,11.997 -0.000,27.207 -0.000,27.207 C-0.000,28.747 1.159,30.000 2.583,30.000 C2.583,30.000 28.417,30.000 28.417,30.000 C29.841,30.000 31.000,28.747 31.000,27.207 C31.000,27.207 31.000,11.997 31.000,11.997 C31.000,11.997 22.972,18.006 22.972,18.006 ZM27.008,24.815 C26.883,25.009 26.682,25.113 26.479,25.113 C26.351,25.113 26.222,25.072 26.109,24.986 C26.109,24.986 19.817,20.225 19.817,20.225 C19.817,20.225 11.183,20.225 11.183,20.225 C11.183,20.225 4.891,24.986 4.891,24.986 C4.599,25.208 4.197,25.131 3.992,24.815 C3.787,24.499 3.858,24.064 4.151,23.842 C4.151,23.842 10.609,18.955 10.609,18.955 C10.717,18.872 10.847,18.828 10.979,18.828 C10.979,18.828 20.021,18.828 20.021,18.828 C20.153,18.828 20.283,18.872 20.391,18.955 C20.391,18.955 26.849,23.842 26.849,23.842 C27.142,24.064 27.213,24.499 27.008,24.815 Z" id="path-1" class="cls-2" fill-rule="evenodd" fill="#aaaaaa"/>
</svg>
