<svg xmlns="http://www.w3.org/2000/svg" xmlns:xlink="http://www.w3.org/1999/xlink" preserveAspectRatio="xMidYMid" width="21" height="18" viewBox="0 0 21 18">
  <path d="M21.048,2.038 C20.273,2.381 19.441,2.613 18.568,2.717 C19.459,2.183 20.144,1.337 20.466,0.329 C19.632,0.824 18.708,1.183 17.725,1.376 C16.938,0.538 15.816,0.014 14.574,0.014 C12.190,0.014 10.257,1.946 10.257,4.330 C10.257,4.669 10.295,4.998 10.369,5.314 C6.781,5.134 3.600,3.415 1.471,0.804 C1.100,1.442 0.887,2.183 0.887,2.974 C0.887,4.472 1.649,5.793 2.807,6.567 C2.099,6.544 1.434,6.350 0.852,6.027 C0.851,6.044 0.851,6.063 0.851,6.081 C0.851,8.173 2.340,9.918 4.314,10.314 C3.952,10.413 3.571,10.466 3.177,10.466 C2.899,10.466 2.628,10.439 2.365,10.389 C2.914,12.104 4.508,13.352 6.397,13.386 C4.920,14.544 3.059,15.234 1.036,15.234 C0.687,15.234 0.344,15.213 0.006,15.174 C1.917,16.399 4.186,17.113 6.624,17.113 C14.564,17.113 18.906,10.535 18.906,4.831 C18.906,4.644 18.902,4.457 18.894,4.272 C19.737,3.663 20.469,2.903 21.048,2.038 Z" id="path-1" class="cls-2" fill-rule="evenodd" fill="#c2c2c2" />
</svg>
